<svg width="16.250000" height="15.632812" viewBox="0 0 16.25 15.6328" fill="none" xmlns="http://www.w3.org/2000/svg" xmlns:xlink="http://www.w3.org/1999/xlink">
	<desc>
			Created with Pixso.
	</desc>
	<defs/>
	<path id="Vector" d="M15.82 2.53L15.82 2.53L8.32 0.03C8.19 -0.02 8.05 -0.02 7.92 0.03L0.42 2.53C0.37 2.55 0.31 2.57 0.26 2.61C0.26 2.61 0.25 2.62 0.25 2.62C0.19 2.66 0.15 2.7 0.11 2.75C0.08 2.81 0.05 2.86 0.03 2.92C0.01 2.99 0 3.05 0 3.12L0 9.37C0 9.53 0.06 9.69 0.18 9.81C0.3 9.93 0.45 10 0.62 10C0.79 10 0.94 9.93 1.06 9.81C1.18 9.69 1.25 9.53 1.25 9.37L1.25 3.99L2.25 4.32L2.9 4.54L3.87 4.86C3.69 5.15 3.54 5.46 3.43 5.77C3.09 6.68 3.03 7.67 3.25 8.64C3.47 9.55 3.94 10.38 4.59 11.04C4.86 11.3 5.16 11.54 5.48 11.74C5.13 11.88 4.78 12.05 4.45 12.25C3.48 12.82 2.64 13.64 1.97 14.66C1.92 14.72 1.89 14.8 1.88 14.88C1.86 14.96 1.86 15.05 1.88 15.13C1.89 15.21 1.93 15.28 1.97 15.35C2.02 15.42 2.08 15.48 2.15 15.53C2.22 15.57 2.3 15.6 2.38 15.62C2.46 15.63 2.54 15.63 2.62 15.61C2.7 15.6 2.78 15.56 2.85 15.51C2.92 15.47 2.97 15.41 3.02 15.33C4.2 13.53 6.06 12.5 8.12 12.5C10.18 12.5 12.04 13.53 13.22 15.33C13.31 15.47 13.45 15.57 13.62 15.6C13.78 15.63 13.94 15.6 14.08 15.51C14.22 15.42 14.32 15.28 14.35 15.12C14.39 14.96 14.36 14.79 14.27 14.66C13.6 13.64 12.76 12.82 11.78 12.25C11.46 12.05 11.11 11.88 10.76 11.74C11.08 11.54 11.38 11.3 11.65 11.04C12.3 10.38 12.77 9.55 12.99 8.64C13.21 7.68 13.15 6.68 12.81 5.77C12.7 5.46 12.55 5.16 12.37 4.87L13.34 4.54L15.82 3.72C15.94 3.67 16.05 3.6 16.13 3.49C16.16 3.44 16.19 3.38 16.21 3.32C16.24 3.26 16.25 3.19 16.25 3.12C16.25 3.05 16.23 2.99 16.21 2.92C16.19 2.86 16.16 2.81 16.13 2.76C16.05 2.65 15.94 2.57 15.82 2.53ZM2.18 14.79Q2.18 14.8 2.17 14.8Q2.18 14.8 2.18 14.79ZM2.81 15.19Q2.81 15.2 2.81 15.2Q2.81 15.2 2.81 15.19ZM4.18 3.65L8.12 4.96L12.06 3.65L13.64 3.12L12.06 2.59L8.12 1.28L4.18 2.59L2.6 3.12L4.18 3.65ZM11.87 7.5C11.87 8.09 11.73 8.67 11.46 9.2C11.19 9.73 10.8 10.19 10.32 10.53C9.84 10.88 9.28 11.11 8.7 11.2C8.11 11.29 7.51 11.25 6.95 11.06C6.39 10.87 5.88 10.56 5.46 10.14C5.04 9.72 4.73 9.2 4.55 8.64C4.37 8.07 4.32 7.48 4.42 6.89C4.52 6.3 4.75 5.75 5.1 5.27L7.92 6.21C8.05 6.25 8.19 6.25 8.32 6.21L11.14 5.27C11.61 5.92 11.87 6.69 11.87 7.5Z" fill="#5E5E5E" fill-opacity="1.000000" fill-rule="evenodd"/>
</svg>
