<svg width="20.000000" height="20.000000" viewBox="0 0 20 20" fill="none" xmlns="http://www.w3.org/2000/svg" xmlns:xlink="http://www.w3.org/1999/xlink">
	<desc>
			Created with Pixso.
	</desc>
	<defs/>
	<rect id=" Icons / Fosfor Icons / CaretRight" rx="0.000000" width="19.000000" height="19.000000" transform="translate(0.500000 0.500000)" fill="#FFFFFF" fill-opacity="0"/>
	<path id="Vector" d="M14.19 10.44L7.94 16.69C7.88 16.75 7.81 16.79 7.74 16.82C7.66 16.85 7.58 16.87 7.5 16.87C7.41 16.87 7.33 16.85 7.26 16.82C7.18 16.79 7.11 16.75 7.05 16.69C7 16.63 6.95 16.56 6.92 16.48C6.89 16.41 6.87 16.33 6.87 16.25C6.87 16.16 6.89 16.08 6.92 16.01C6.95 15.93 7 15.86 7.05 15.8L12.86 10L7.05 4.19C6.94 4.07 6.87 3.91 6.87 3.75C6.87 3.58 6.94 3.42 7.05 3.3C7.17 3.19 7.33 3.12 7.5 3.12C7.66 3.12 7.82 3.19 7.94 3.3L14.19 9.55C14.25 9.61 14.29 9.68 14.32 9.76C14.35 9.83 14.37 9.91 14.37 10C14.37 10.08 14.35 10.16 14.32 10.23C14.29 10.31 14.25 10.38 14.19 10.44Z" fill="#6A0BFF" fill-opacity="1.000000" fill-rule="nonzero"/>
</svg>
