<svg width="24.000000" height="24.000000" viewBox="0 0 24 24" fill="none" xmlns="http://www.w3.org/2000/svg" xmlns:xlink="http://www.w3.org/1999/xlink">
	<desc>
			Created with Pixso.
	</desc>
	<defs/>
	<rect id=" Icons / Fosfor Icons / ThumbsDown" rx="0.000000" width="23.000000" height="23.000000" transform="translate(0.500000 0.500000)" fill="#FFFFFF" fill-opacity="0"/>
	<path id="Vector" d="M22.48 14.71L21.35 5.71C21.28 5.17 21.02 4.67 20.61 4.31C20.2 3.94 19.67 3.75 19.12 3.75L3 3.75C2.6 3.75 2.22 3.9 1.93 4.18C1.65 4.46 1.5 4.85 1.5 5.25L1.5 13.5C1.5 13.89 1.65 14.28 1.93 14.56C2.22 14.84 2.6 15 3 15L7.03 15L10.57 22.08C10.64 22.21 10.73 22.31 10.85 22.38C10.97 22.46 11.11 22.5 11.25 22.5C12.24 22.5 13.19 22.1 13.9 21.4C14.6 20.69 15 19.74 15 18.75L15 17.25L20.25 17.25C20.56 17.25 20.88 17.18 21.17 17.05C21.46 16.91 21.72 16.72 21.93 16.48C22.14 16.25 22.3 15.96 22.4 15.66C22.49 15.35 22.52 15.03 22.48 14.71ZM6.75 13.5L3 13.5L3 5.25L6.75 5.25L6.75 13.5ZM20.81 15.49C20.74 15.57 20.65 15.64 20.55 15.68C20.46 15.72 20.35 15.75 20.25 15.75L14.25 15.75C14.05 15.75 13.85 15.82 13.71 15.96C13.57 16.1 13.5 16.3 13.5 16.5L13.5 18.75C13.5 19.26 13.32 19.77 12.99 20.17C12.66 20.57 12.2 20.85 11.69 20.95L8.25 14.07L8.25 5.25L19.12 5.25C19.3 5.25 19.48 5.31 19.62 5.43C19.75 5.55 19.84 5.72 19.86 5.9L20.99 14.9C21 15.01 21 15.12 20.96 15.22C20.93 15.32 20.88 15.41 20.81 15.49Z" fill="#474747" fill-opacity="1.000000" fill-rule="nonzero"/>
</svg>
