<svg width="20.000000" height="20.000000" viewBox="0 0 20 20" fill="none" xmlns="http://www.w3.org/2000/svg" xmlns:xlink="http://www.w3.org/1999/xlink">
	<desc>
			Created with Pixso.
	</desc>
	<defs>
		<clipPath id="clip23_58076">
			<rect id="Figma" rx="0.000000" width="19.000000" height="19.000000" transform="translate(0.500000 0.500000)" fill="white" fill-opacity="0"/>
		</clipPath>
	</defs>
	<rect id="Figma" rx="0.000000" width="19.000000" height="19.000000" transform="translate(0.500000 0.500000)" fill="#FFFFFF" fill-opacity="0"/>
	<g clip-path="url(#clip23_58076)">
		<path id="Vector" d="M10.02 10C10.02 8.16 11.51 6.66 13.35 6.66C15.19 6.66 16.68 8.16 16.68 10C16.68 11.84 15.19 13.33 13.35 13.33C11.51 13.33 10.02 11.84 10.02 10Z" fill="#00BCFF" fill-opacity="1.000000" fill-rule="nonzero"/>
		<path id="Vector" d="M3.35 16.66C3.35 14.82 4.84 13.33 6.69 13.33L8.46 12.39L10.02 13.33L10.02 16.66C10.02 18.5 8.53 20 6.69 20C4.84 20 3.35 18.5 3.35 16.66Z" fill="#00CF7F" fill-opacity="1.000000" fill-rule="nonzero"/>
		<path id="Vector" d="M10.02 0L8.2 3.15L10.02 6.66L13.3 6.66C15.15 6.66 16.64 5.17 16.64 3.33C16.64 1.49 15.15 0 13.3 0L10.02 0Z" fill="#FF7361" fill-opacity="1.000000" fill-rule="nonzero"/>
		<path id="Vector" d="M3.31 3.33C3.31 5.17 4.8 6.66 6.64 6.66L8.41 7.35L10.02 6.66L10.02 0L6.64 0C4.8 0 3.31 1.49 3.31 3.33Z" fill="#FF4D12" fill-opacity="1.000000" fill-rule="nonzero"/>
		<path id="Vector" d="M3.35 10C3.35 11.84 4.84 13.33 6.69 13.33L10.02 13.33L10.02 6.66L6.69 6.66C4.84 6.66 3.35 8.16 3.35 10Z" fill="#B659FF" fill-opacity="1.000000" fill-rule="nonzero"/>
	</g>
</svg>
