<svg width="15.621094" height="15.000000" viewBox="0 0 15.6211 15" fill="none" xmlns="http://www.w3.org/2000/svg" xmlns:xlink="http://www.w3.org/1999/xlink">
	<desc>
			Created with Pixso.
	</desc>
	<defs/>
	<path id="Vector" d="M8.75 7.14L8.75 3.75C8.75 3.58 8.68 3.42 8.56 3.3C8.44 3.19 8.29 3.12 8.12 3.12C7.95 3.12 7.8 3.19 7.68 3.3C7.56 3.42 7.5 3.58 7.5 3.75L7.5 7.5C7.5 7.6 7.52 7.71 7.58 7.8C7.63 7.9 7.71 7.98 7.8 8.03L10.92 9.91C11.07 9.99 11.24 10.02 11.4 9.98C11.56 9.94 11.7 9.83 11.78 9.69C11.87 9.55 11.89 9.38 11.85 9.22C11.81 9.06 11.71 8.92 11.57 8.83L8.75 7.14ZM3.27 5L1.95 5C2.24 4.66 2.53 4.32 2.83 4C3.1 3.69 3.39 3.39 3.7 3.08C4.57 2.21 5.67 1.61 6.88 1.37C8.08 1.12 9.33 1.24 10.47 1.7C11.6 2.17 12.58 2.95 13.28 3.97C13.97 4.98 14.35 6.17 14.37 7.41C14.38 8.63 14.04 9.84 13.38 10.87C12.71 11.91 11.76 12.72 10.63 13.22C9.51 13.71 8.26 13.86 7.05 13.66C5.84 13.44 4.72 12.88 3.83 12.04C3.77 11.98 3.7 11.94 3.62 11.91C3.54 11.88 3.46 11.87 3.38 11.87C3.3 11.87 3.22 11.89 3.14 11.92C3.07 11.96 3 12.01 2.94 12.07C2.89 12.12 2.84 12.19 2.81 12.27C2.78 12.35 2.77 12.43 2.77 12.51C2.77 12.6 2.79 12.67 2.83 12.75C2.86 12.83 2.91 12.89 2.97 12.95C3.86 13.79 4.94 14.4 6.12 14.73C7.3 15.05 8.54 15.08 9.74 14.82C10.93 14.55 12.04 14 12.98 13.21C13.91 12.41 14.63 11.41 15.08 10.27C15.54 9.13 15.7 7.9 15.57 6.68C15.44 5.46 15.01 4.3 14.32 3.29C13.64 2.27 12.71 1.44 11.63 0.87C10.55 0.3 9.34 0 8.12 0C7.13 -0.01 6.16 0.19 5.25 0.56C4.33 0.94 3.51 1.5 2.81 2.19C2.62 2.39 2.43 2.59 2.25 2.78C1.9 3.16 1.57 3.52 1.25 3.9L1.25 2.5C1.25 2.46 1.24 2.43 1.24 2.4C1.22 2.27 1.16 2.15 1.06 2.05C0.94 1.94 0.79 1.87 0.62 1.87C0.45 1.87 0.3 1.94 0.18 2.05C0.06 2.17 0 2.33 0 2.5L0 5.62C0 5.66 0 5.7 0.01 5.74C0.02 5.83 0.06 5.92 0.12 6C0.14 6.02 0.16 6.04 0.18 6.06C0.2 6.08 0.22 6.1 0.25 6.12C0.33 6.19 0.44 6.23 0.56 6.24C0.58 6.25 0.6 6.25 0.62 6.25L3.75 6.25C3.91 6.25 4.07 6.18 4.19 6.06C4.3 5.94 4.37 5.78 4.37 5.62C4.37 5.46 4.3 5.3 4.19 5.18C4.07 5.06 3.91 5 3.75 5L3.27 5Z" fill="#5E5E5E" fill-opacity="1.000000" fill-rule="evenodd"/>
</svg>
