<svg width="24.000000" height="24.000000" viewBox="0 0 24 24" fill="none" xmlns="http://www.w3.org/2000/svg" xmlns:xlink="http://www.w3.org/1999/xlink">
	<desc>
			Created with Pixso.
	</desc>
	<defs/>
	<rect id=" Icons / Fosfor Icons / ThumbsUp" rx="0.000000" width="23.000000" height="23.000000" transform="translate(0.500000 0.500000)" fill="#FFFFFF" fill-opacity="0"/>
	<path id="Vector" d="M21.93 7.51C21.72 7.27 21.46 7.08 21.17 6.94C20.88 6.81 20.56 6.75 20.25 6.75L15 6.75L15 5.25C15 4.25 14.6 3.3 13.9 2.59C13.19 1.89 12.24 1.5 11.25 1.5C11.11 1.5 10.97 1.53 10.85 1.61C10.73 1.68 10.64 1.78 10.57 1.91L7.03 9L3 9C2.6 9 2.22 9.15 1.93 9.43C1.65 9.71 1.5 10.1 1.5 10.5L1.5 18.75C1.5 19.14 1.65 19.53 1.93 19.81C2.22 20.09 2.6 20.25 3 20.25L19.12 20.25C19.67 20.25 20.2 20.05 20.61 19.68C21.02 19.32 21.28 18.82 21.35 18.28L22.48 9.28C22.52 8.96 22.49 8.64 22.4 8.33C22.3 8.03 22.14 7.75 21.93 7.51ZM3 10.5L6.75 10.5L6.75 18.75L3 18.75L3 10.5ZM20.99 9.09L19.86 18.09C19.84 18.27 19.75 18.44 19.62 18.56C19.48 18.68 19.3 18.75 19.12 18.75L8.25 18.75L8.25 9.92L11.69 3.04C12.2 3.14 12.66 3.42 12.99 3.82C13.32 4.22 13.5 4.73 13.5 5.25L13.5 7.5C13.5 7.69 13.57 7.89 13.71 8.03C13.85 8.17 14.05 8.25 14.25 8.25L20.25 8.25C20.35 8.25 20.46 8.27 20.55 8.31C20.65 8.35 20.74 8.42 20.81 8.5C20.88 8.58 20.93 8.67 20.96 8.77C20.99 8.88 21 8.98 20.99 9.09Z" fill="#6A0BFF" fill-opacity="1.000000" fill-rule="nonzero"/>
</svg>
