<svg width="24.000000" height="24.000000" viewBox="0 0 24 24" fill="none" xmlns="http://www.w3.org/2000/svg" xmlns:xlink="http://www.w3.org/1999/xlink">
	<desc>
			Created with Pixso.
	</desc>
	<defs/>
	<rect id=" Icons / Fosfor Icons / ListMagnifyingGlass" rx="0.000000" width="23.000000" height="23.000000" transform="translate(0.500000 0.500000)" fill="#FFFFFF" fill-opacity="0"/>
	<path id="Vector" d="M3 6C3 5.8 3.07 5.6 3.21 5.46C3.35 5.32 3.55 5.25 3.75 5.25L20.25 5.25C20.44 5.25 20.64 5.32 20.78 5.46C20.92 5.6 21 5.8 21 6C21 6.19 20.92 6.39 20.78 6.53C20.64 6.67 20.44 6.75 20.25 6.75L3.75 6.75C3.55 6.75 3.35 6.67 3.21 6.53C3.07 6.39 3 6.19 3 6ZM3.75 12.75L10.5 12.75C10.69 12.75 10.89 12.67 11.03 12.53C11.17 12.39 11.25 12.19 11.25 12C11.25 11.8 11.17 11.6 11.03 11.46C10.89 11.32 10.69 11.25 10.5 11.25L3.75 11.25C3.55 11.25 3.35 11.32 3.21 11.46C3.07 11.6 3 11.8 3 12C3 12.19 3.07 12.39 3.21 12.53C3.35 12.67 3.55 12.75 3.75 12.75ZM12 17.25L3.75 17.25C3.55 17.25 3.35 17.32 3.21 17.46C3.07 17.6 3 17.8 3 18C3 18.19 3.07 18.39 3.21 18.53C3.35 18.67 3.55 18.75 3.75 18.75L12 18.75C12.19 18.75 12.39 18.67 12.53 18.53C12.67 18.39 12.75 18.19 12.75 18C12.75 17.8 12.67 17.6 12.53 17.46C12.39 17.32 12.19 17.25 12 17.25ZM22.28 18.53C22.21 18.6 22.12 18.65 22.03 18.69C21.94 18.73 21.84 18.75 21.75 18.75C21.65 18.75 21.55 18.73 21.46 18.69C21.37 18.65 21.28 18.6 21.21 18.53L19.31 16.62C18.53 17.14 17.59 17.34 16.68 17.2C15.76 17.06 14.92 16.58 14.34 15.86C13.75 15.14 13.45 14.23 13.5 13.3C13.54 12.37 13.93 11.5 14.59 10.84C15.25 10.18 16.13 9.8 17.05 9.75C17.98 9.7 18.89 10 19.61 10.58C20.33 11.17 20.81 12.01 20.95 12.92C21.09 13.84 20.88 14.78 20.37 15.56L22.28 17.46C22.35 17.53 22.4 17.61 22.44 17.71C22.48 17.8 22.5 17.89 22.5 18C22.5 18.09 22.48 18.19 22.44 18.28C22.4 18.37 22.35 18.46 22.28 18.53ZM17.25 15.75C17.69 15.75 18.13 15.61 18.5 15.37C18.86 15.12 19.15 14.77 19.32 14.35C19.5 13.94 19.54 13.49 19.45 13.06C19.36 12.62 19.15 12.22 18.84 11.91C18.52 11.59 18.12 11.37 17.68 11.29C17.25 11.2 16.8 11.25 16.38 11.42C15.97 11.58 15.62 11.87 15.37 12.25C15.13 12.62 15 13.05 15 13.5C15 14.09 15.23 14.66 15.65 15.08C16.08 15.51 16.65 15.75 17.25 15.75Z" fill="#6A0BFF" fill-opacity="1.000000" fill-rule="nonzero"/>
</svg>
