<svg width="24.000000" height="24.000000" viewBox="0 0 24 24" fill="none" xmlns="http://www.w3.org/2000/svg" xmlns:xlink="http://www.w3.org/1999/xlink">
	<desc>
			Created with Pixso.
	</desc>
	<defs>
		<clipPath id="clip20_92008">
			<rect id="Outline / School / Notebook" rx="0.000000" width="23.000000" height="23.000000" transform="translate(0.500000 0.500000)" fill="white" fill-opacity="0"/>
		</clipPath>
	</defs>
	<g clip-path="url(#clip20_92008)">
		<path id="Vector" d="M20.05 2.26C21.58 2.21 22.75 3.46 22.75 4.93L22.75 16.14C22.75 17.67 21.5 18.87 20.03 18.96C19.07 19.03 17.99 19.14 17.19 19.35C16.19 19.62 14.97 20.2 13.98 20.73C12.74 21.38 11.25 21.38 10.01 20.73C9.02 20.2 7.8 19.62 6.8 19.35C6 19.14 4.92 19.03 3.96 18.96C2.49 18.87 1.25 17.67 1.25 16.14L1.25 4.99C1.25 3.49 2.47 2.23 4.02 2.32C5.01 2.38 6.23 2.5 7.19 2.76C8.32 3.06 9.63 3.68 10.63 4.21C11.46 4.64 12.48 4.62 13.29 4.15C14.16 3.64 15.28 3.06 16.28 2.76C17.42 2.42 18.91 2.3 20.05 2.26ZM21.25 4.93C21.25 4.25 20.72 3.74 20.1 3.76C18.98 3.8 17.66 3.92 16.71 4.2C15.89 4.44 14.9 4.95 14.04 5.44C13.64 5.68 13.2 5.85 12.75 5.94L12.75 19.61C12.92 19.56 13.1 19.49 13.27 19.4C14.28 18.87 15.63 18.21 16.8 17.9C17.75 17.65 18.95 17.53 19.93 17.47C20.68 17.42 21.25 16.82 21.25 16.14L21.25 4.93ZM9.93 5.53C10.34 5.75 10.79 5.9 11.25 5.97L11.25 19.61C11.07 19.56 10.89 19.49 10.72 19.4C9.71 18.87 8.36 18.21 7.19 17.9C6.24 17.65 5.04 17.53 4.06 17.47C3.31 17.42 2.75 16.82 2.75 16.14L2.75 4.99C2.75 4.3 3.3 3.78 3.93 3.82C4.9 3.88 5.99 3.99 6.8 4.21C7.77 4.46 8.95 5.01 9.93 5.53ZM5.18 8.26C4.77 8.17 4.37 8.41 4.27 8.81C4.17 9.21 4.41 9.62 4.81 9.72L8.81 10.72C9.22 10.82 9.62 10.58 9.72 10.17C9.82 9.77 9.58 9.37 9.18 9.26L5.18 8.26ZM18.81 8.26C19.22 8.17 19.62 8.41 19.72 8.81C19.82 9.21 19.58 9.62 19.18 9.72L15.18 10.72C14.77 10.82 14.37 10.58 14.27 10.17C14.17 9.77 14.41 9.37 14.81 9.26L18.81 8.26ZM4.27 12.81C4.37 12.41 4.77 12.17 5.18 12.26L9.18 13.26C9.58 13.37 9.82 13.77 9.72 14.17C9.62 14.58 9.22 14.82 8.81 14.72L4.81 13.72C4.41 13.62 4.17 13.21 4.27 12.81ZM18.81 12.26C19.22 12.17 19.62 12.41 19.72 12.81C19.82 13.21 19.58 13.62 19.18 13.72L15.18 14.72C14.77 14.82 14.37 14.58 14.27 14.17C14.17 13.77 14.41 13.37 14.81 13.26L18.81 12.26Z" fill="#474747" fill-opacity="1.000000" fill-rule="evenodd"/>
	</g>
</svg>
