<svg width="24.000000" height="24.000000" viewBox="0 0 24 24" fill="none" xmlns="http://www.w3.org/2000/svg" xmlns:xlink="http://www.w3.org/1999/xlink">
	<desc>
			Created with Pixso.
	</desc>
	<defs/>
	<rect id=" Icons / Fosfor Icons / BookmarkSimple" rx="0.000000" width="23.000000" height="23.000000" transform="translate(0.500000 0.500000)" fill="#FFFFFF" fill-opacity="0"/>
	<path id="Vector" d="M17.25 3L6.75 3C6.35 3 5.97 3.15 5.68 3.43C5.4 3.71 5.25 4.1 5.25 4.5L5.25 21C5.25 21.13 5.28 21.26 5.35 21.37C5.42 21.49 5.51 21.58 5.63 21.65C5.75 21.71 5.88 21.75 6.01 21.75C6.15 21.74 6.28 21.7 6.39 21.63L12 18.13L17.6 21.63C17.71 21.7 17.84 21.74 17.98 21.75C18.11 21.75 18.24 21.71 18.36 21.65C18.48 21.58 18.57 21.49 18.64 21.37C18.71 21.26 18.75 21.13 18.75 21L18.75 4.5C18.75 4.1 18.59 3.71 18.31 3.43C18.02 3.15 17.64 3 17.25 3ZM17.25 19.64L12.39 16.61C12.27 16.53 12.13 16.5 12 16.5C11.85 16.5 11.72 16.53 11.6 16.61L6.75 19.64L6.75 4.5L17.25 4.5L17.25 19.64Z" fill="#6A0BFF" fill-opacity="1.000000" fill-rule="nonzero"/>
</svg>
