<svg width="19.500000" height="21.500000" viewBox="0 0 19.5 21.5" fill="none" xmlns="http://www.w3.org/2000/svg" xmlns:xlink="http://www.w3.org/1999/xlink">
	<desc>
			Created with Pixso.
	</desc>
	<defs/>
	<path id="Vector" d="M12.8 0L11.69 0C10.32 0 9.22 0 8.35 0.11C7.45 0.23 6.7 0.49 6.09 1.09C5.69 1.49 5.45 1.96 5.29 2.5C4.34 2.5 3.54 2.51 2.9 2.59C2.14 2.7 1.48 2.92 0.95 3.45C0.42 3.98 0.2 4.64 0.09 5.4C0 6.13 0 7.06 0 8.19L0 13.3C0 14.43 0 15.36 0.09 16.09C0.2 16.85 0.42 17.51 0.95 18.04C1.48 18.57 2.14 18.79 2.9 18.9C3.54 18.98 4.34 18.99 5.29 19C5.45 19.53 5.69 20 6.09 20.4C6.7 21 7.45 21.26 8.35 21.38C9.22 21.5 10.32 21.5 11.69 21.5L12.8 21.5C14.17 21.5 15.27 21.5 16.14 21.38C17.04 21.26 17.79 21 18.4 20.4C19 19.79 19.26 19.04 19.38 18.14C19.5 17.27 19.5 16.17 19.5 14.8L19.5 6.69C19.5 5.32 19.5 4.22 19.38 3.35C19.26 2.45 19 1.7 18.4 1.09C17.79 0.49 17.04 0.23 16.14 0.11C15.27 0 14.17 0 12.8 0L12.8 0ZM5.05 17.49C5.01 16.97 5 16.39 5 15.75C5 15.33 5.33 15 5.74 15C6.16 14.99 6.5 15.33 6.5 15.74C6.5 16.83 6.53 17.61 6.64 18.2C6.74 18.76 6.91 19.09 7.15 19.34C7.43 19.61 7.82 19.79 8.55 19.89C9.31 19.99 10.31 20 11.75 20L12.75 20C14.18 20 15.18 19.99 15.94 19.89C16.67 19.79 17.06 19.61 17.34 19.34C17.61 19.06 17.79 18.67 17.89 17.94C17.99 17.18 18 16.18 18 14.75L18 6.75C18 5.31 17.99 4.31 17.89 3.55C17.79 2.82 17.61 2.43 17.34 2.15C17.06 1.88 16.67 1.7 15.94 1.6C15.18 1.5 14.18 1.5 12.75 1.5L11.75 1.5C10.31 1.5 9.31 1.5 8.55 1.6C7.82 1.7 7.43 1.88 7.15 2.15C6.91 2.4 6.74 2.73 6.64 3.29C6.53 3.88 6.5 4.66 6.5 5.75C6.5 6.16 6.16 6.5 5.74 6.5C5.33 6.49 5 6.16 5 5.74C5 5.1 5.01 4.52 5.05 4C4.21 4 3.59 4.01 3.1 4.08C2.5 4.16 2.21 4.3 2.01 4.51C1.8 4.71 1.66 5 1.58 5.6C1.5 6.22 1.5 7.04 1.5 8.25L1.5 13.25C1.5 14.45 1.5 15.27 1.58 15.89C1.66 16.49 1.8 16.78 2.01 16.98C2.21 17.19 2.5 17.33 3.1 17.41C3.59 17.48 4.21 17.49 5.05 17.49ZM3.21 10.21C2.92 10.51 2.92 10.98 3.21 11.28L5.21 13.28C5.51 13.57 5.98 13.57 6.28 13.28C6.57 12.98 6.57 12.51 6.28 12.21L5.56 11.5L12.75 11.5C13.16 11.5 13.5 11.16 13.5 10.75C13.5 10.33 13.16 10 12.75 10L5.56 10L6.28 9.28C6.57 8.98 6.57 8.51 6.28 8.21C5.98 7.92 5.51 7.92 5.21 8.21L3.21 10.21Z" fill="#F3164E" fill-opacity="1.000000" fill-rule="evenodd"/>
	<path id="Vector" d="M12.8 0L11.69 0C10.32 0 9.22 0 8.35 0.11C7.45 0.23 6.7 0.49 6.09 1.09C5.69 1.49 5.45 1.96 5.29 2.5C4.34 2.5 3.54 2.51 2.9 2.59C2.14 2.7 1.48 2.92 0.95 3.45C0.42 3.98 0.2 4.64 0.09 5.4C0 6.13 0 7.06 0 8.19L0 13.3C0 14.43 0 15.36 0.09 16.09C0.2 16.85 0.42 17.51 0.95 18.04C1.48 18.57 2.14 18.79 2.9 18.9C3.54 18.98 4.34 18.99 5.29 19C5.45 19.53 5.69 20 6.09 20.4C6.7 21 7.45 21.26 8.35 21.38C9.22 21.5 10.32 21.5 11.69 21.5L12.8 21.5C14.17 21.5 15.27 21.5 16.14 21.38C17.04 21.26 17.79 21 18.4 20.4C19 19.79 19.26 19.04 19.38 18.14C19.5 17.27 19.5 16.17 19.5 14.8L19.5 6.69C19.5 5.32 19.5 4.22 19.38 3.35C19.26 2.45 19 1.7 18.4 1.09C17.79 0.49 17.04 0.23 16.14 0.11C15.27 0 14.17 0 12.8 0ZM5 15.75C5 15.33 5.33 15 5.74 15C6.16 14.99 6.5 15.33 6.5 15.74C6.5 16.83 6.53 17.61 6.64 18.2C6.74 18.76 6.91 19.09 7.15 19.34C7.43 19.61 7.82 19.79 8.55 19.89C9.31 19.99 10.31 20 11.75 20L12.75 20C14.18 20 15.18 19.99 15.94 19.89C16.67 19.79 17.06 19.61 17.34 19.34C17.61 19.06 17.79 18.67 17.89 17.94C17.99 17.18 18 16.18 18 14.75L18 6.75C18 5.31 17.99 4.31 17.89 3.55C17.79 2.82 17.61 2.43 17.34 2.15C17.06 1.88 16.67 1.7 15.94 1.6C15.18 1.5 14.18 1.5 12.75 1.5L11.75 1.5C10.31 1.5 9.31 1.5 8.55 1.6C7.82 1.7 7.43 1.88 7.15 2.15C6.91 2.4 6.74 2.73 6.64 3.29C6.53 3.88 6.5 4.66 6.5 5.75C6.5 6.16 6.16 6.5 5.74 6.5C5.33 6.49 5 6.16 5 5.74C5 5.1 5.01 4.52 5.05 4C4.21 4 3.59 4.01 3.1 4.08C2.5 4.16 2.21 4.3 2.01 4.51C1.8 4.71 1.66 5 1.58 5.6C1.5 6.22 1.5 7.04 1.5 8.25L1.5 13.25C1.5 14.45 1.5 15.27 1.58 15.89C1.66 16.49 1.8 16.78 2.01 16.98C2.21 17.19 2.5 17.33 3.1 17.41C3.59 17.48 4.21 17.49 5.05 17.49C5.01 16.97 5 16.39 5 15.75ZM3.21 11.28L5.21 13.28C5.51 13.57 5.98 13.57 6.28 13.28C6.57 12.98 6.57 12.51 6.28 12.21L5.56 11.5L12.75 11.5C13.16 11.5 13.5 11.16 13.5 10.75C13.5 10.33 13.16 10 12.75 10L5.56 10L6.28 9.28C6.57 8.98 6.57 8.51 6.28 8.21C5.98 7.92 5.51 7.92 5.21 8.21L3.21 10.21C2.92 10.51 2.92 10.98 3.21 11.28Z" stroke="#F3164E" stroke-opacity="1.000000" stroke-width="0.000000"/>
</svg>
