<svg width="21.500000" height="21.500000" viewBox="0 0 21.5 21.5" fill="none" xmlns="http://www.w3.org/2000/svg" xmlns:xlink="http://www.w3.org/1999/xlink">
	<desc>
			Created with Pixso.
	</desc>
	<defs/>
	<path id="Vector" d="M8.7 0.54C9.39 0.2 10.04 0 10.75 0C11.45 0 12.1 0.2 12.79 0.54C13.47 0.87 14.25 1.35 15.22 1.95L17.29 3.24C18.21 3.81 18.95 4.27 19.52 4.7C20.1 5.15 20.56 5.61 20.88 6.21C21.21 6.8 21.36 7.44 21.43 8.19C21.5 8.91 21.5 9.8 21.5 10.91L21.5 12.53C21.5 14.43 21.5 15.93 21.34 17.11C21.19 18.31 20.86 19.29 20.11 20.05C19.37 20.83 18.41 21.17 17.24 21.34C16.1 21.5 14.64 21.5 12.8 21.5L8.69 21.5C6.85 21.5 5.39 21.5 4.25 21.34C3.08 21.17 2.12 20.83 1.38 20.05C0.63 19.29 0.3 18.31 0.15 17.11C0 15.93 0 14.43 0 12.53L0 10.91C0 9.8 0 8.91 0.06 8.19C0.13 7.44 0.28 6.8 0.61 6.21C0.93 5.61 1.39 5.15 1.97 4.7C2.54 4.27 3.28 3.81 4.2 3.24L6.27 1.95C7.24 1.35 8.02 0.87 8.7 0.54ZM9.35 1.89C8.75 2.18 8.04 2.62 7.02 3.25L5.02 4.49C4.06 5.09 3.39 5.51 2.89 5.89C2.4 6.27 2.12 6.58 1.92 6.93C1.73 7.28 1.62 7.69 1.56 8.33C1.5 8.97 1.5 9.79 1.5 10.95L1.5 12.47C1.5 14.44 1.5 15.85 1.64 16.91C1.77 17.96 2.03 18.57 2.46 19.01C2.88 19.45 3.46 19.71 4.46 19.85C5.49 19.99 6.84 20 8.75 20L12.75 20C14.65 20 16 19.99 17.03 19.85C18.03 19.71 18.61 19.45 19.03 19.01C19.46 18.57 19.72 17.96 19.85 16.91C19.99 15.85 20 14.44 20 12.47L20 10.95C20 9.79 19.99 8.97 19.93 8.33C19.87 7.69 19.76 7.28 19.57 6.93C19.37 6.58 19.09 6.27 18.6 5.89C18.1 5.51 17.43 5.09 16.47 4.49L14.47 3.25C13.45 2.62 12.74 2.18 12.14 1.89C11.56 1.6 11.14 1.5 10.75 1.5C10.35 1.5 9.93 1.6 9.35 1.89ZM7 16.75C7 16.33 7.33 16 7.75 16L13.75 16C14.16 16 14.5 16.33 14.5 16.75C14.5 17.16 14.16 17.5 13.75 17.5L7.75 17.5C7.33 17.5 7 17.16 7 16.75Z" fill="#474747" fill-opacity="1.000000" fill-rule="evenodd"/>
</svg>
