<svg width="19.500000" height="18.757812" viewBox="0 0 19.5 18.7578" fill="none" xmlns="http://www.w3.org/2000/svg" xmlns:xlink="http://www.w3.org/1999/xlink">
	<desc>
			Created with Pixso.
	</desc>
	<defs/>
	<path id="Vector" d="M18.98 3.03L9.98 0.03C9.83 -0.02 9.66 -0.02 9.51 0.03L0.51 3.03C0.36 3.08 0.23 3.18 0.14 3.31C0.04 3.43 0 3.59 0 3.75L0 11.25C0 11.44 0.07 11.64 0.21 11.78C0.35 11.92 0.55 12 0.75 12C0.94 12 1.14 11.92 1.28 11.78C1.42 11.64 1.5 11.44 1.5 11.25L1.5 4.78L4.64 5.83C3.81 7.19 3.54 8.82 3.91 10.36C4.27 11.91 5.23 13.25 6.58 14.09C4.89 14.75 3.43 15.95 2.37 17.58C2.31 17.67 2.27 17.76 2.25 17.86C2.23 17.96 2.24 18.06 2.25 18.16C2.27 18.25 2.31 18.34 2.37 18.42C2.42 18.51 2.5 18.58 2.58 18.63C2.66 18.69 2.76 18.73 2.85 18.74C2.95 18.76 3.05 18.76 3.15 18.74C3.25 18.71 3.34 18.67 3.42 18.62C3.5 18.56 3.57 18.49 3.62 18.41C5.04 16.24 7.27 15 9.75 15C12.22 15 14.45 16.24 15.87 18.41C15.98 18.57 16.15 18.68 16.34 18.72C16.53 18.76 16.73 18.72 16.9 18.62C17.06 18.51 17.18 18.34 17.22 18.15C17.26 17.95 17.23 17.75 17.12 17.58C16.06 15.95 14.59 14.75 12.91 14.09C14.26 13.25 15.22 11.91 15.58 10.37C15.95 8.82 15.68 7.19 14.85 5.84L18.98 4.46C19.13 4.41 19.26 4.32 19.35 4.19C19.45 4.06 19.5 3.91 19.5 3.75C19.5 3.59 19.45 3.44 19.35 3.31C19.26 3.18 19.13 3.09 18.98 3.04L18.98 3.03ZM14.25 9C14.25 9.71 14.08 10.41 13.75 11.04C13.43 11.67 12.96 12.22 12.39 12.64C11.81 13.06 11.14 13.33 10.44 13.44C9.74 13.55 9.02 13.5 8.34 13.27C7.66 13.05 7.05 12.67 6.55 12.17C6.05 11.66 5.67 11.05 5.46 10.37C5.24 9.69 5.19 8.97 5.3 8.27C5.42 7.57 5.7 6.9 6.12 6.33L9.51 7.45C9.66 7.5 9.83 7.5 9.98 7.45L13.37 6.33C13.94 7.1 14.25 8.03 14.25 9ZM9.75 5.96L3.12 3.75L9.75 1.53L16.37 3.75L9.75 5.96Z" fill="#6A0BFF" fill-opacity="1.000000" fill-rule="nonzero"/>
</svg>
