<svg width="24.000000" height="24.000000" viewBox="0 0 24 24" fill="none" xmlns="http://www.w3.org/2000/svg" xmlns:xlink="http://www.w3.org/1999/xlink">
	<desc>
			Created with Pixso.
	</desc>
	<defs/>
	<rect id=" Icons / Fosfor Icons / Book" rx="0.000000" width="23.000000" height="23.000000" transform="translate(0.500000 0.500000)" fill="#FFFFFF" fill-opacity="0"/>
	<path id="Vector" d="M19.5 2.25L6.75 2.25C5.95 2.25 5.19 2.56 4.62 3.12C4.06 3.69 3.75 4.45 3.75 5.25L3.75 21C3.75 21.19 3.82 21.39 3.96 21.53C4.1 21.67 4.3 21.75 4.5 21.75L18 21.75C18.19 21.75 18.39 21.67 18.53 21.53C18.67 21.39 18.75 21.19 18.75 21C18.75 20.8 18.67 20.6 18.53 20.46C18.39 20.32 18.19 20.25 18 20.25L5.25 20.25C5.25 19.85 5.4 19.46 5.68 19.18C5.97 18.9 6.35 18.75 6.75 18.75L19.5 18.75C19.69 18.75 19.89 18.67 20.03 18.53C20.17 18.39 20.25 18.19 20.25 18L20.25 3C20.25 2.8 20.17 2.6 20.03 2.46C19.89 2.32 19.69 2.25 19.5 2.25ZM18.75 17.25L6.75 17.25C6.22 17.25 5.7 17.38 5.25 17.65L5.25 5.25C5.25 4.85 5.4 4.46 5.68 4.18C5.97 3.9 6.35 3.75 6.75 3.75L18.75 3.75L18.75 17.25Z" fill="#474747" fill-opacity="1.000000" fill-rule="nonzero"/>
</svg>
