<svg width="33.000000" height="33.000000" viewBox="0 0 33 33" fill="none" xmlns="http://www.w3.org/2000/svg" xmlns:xlink="http://www.w3.org/1999/xlink">
	<desc>
			Created with Pixso.
	</desc>
	<defs/>
	<circle id="Ellipse 3594" cx="16.500000" cy="16.500000" r="16.500000" fill="#4600E9" fill-opacity="1.000000"/>
	<path id="Vector" d="M26.85 12.32C26.18 12.78 25.76 13.33 25.59 13.95C25.49 14.32 25.45 14.67 25.51 14.71C25.61 14.77 26.24 14.41 26.54 14.13C26.86 13.83 27.12 13.4 27.23 12.96C27.3 12.68 27.33 12.07 27.26 12.07C27.24 12.07 27.06 12.18 26.85 12.32ZM25.79 14.11C25.76 14.08 25.93 13.76 26.03 13.65C26.21 13.47 26.21 13.51 26 13.83C25.89 13.99 25.8 14.12 25.79 14.11Z" fill="#FFFFFF" fill-opacity="1.000000" fill-rule="evenodd"/>
	<path id="Vector" d="M11.53 16.97C11.52 16.98 11.33 16.97 11.12 16.94L10.74 16.89C10.73 16.89 10.71 16.88 10.71 16.88L10.5 16.65C10.03 16.14 9.52 15.97 8.39 15.97C7.56 15.97 7.53 15.98 7.67 16.25C8.02 16.92 8.8 17.35 9.68 17.35C9.91 17.35 10.22 17.32 10.36 17.28C10.5 17.25 10.64 17.24 10.68 17.26C10.72 17.28 11.04 17.34 11.39 17.4L12.03 17.51L11.53 16.97Z" fill="#FFFFFF" fill-opacity="1.000000" fill-rule="evenodd"/>
	<path id="Vector" d="M10.98 9.75C10.98 9.52 11 9.26 11.04 9.16C11.07 9.07 11.12 8.99 11.14 8.99C11.21 8.99 11.37 9.26 11.47 9.53C11.57 9.81 11.61 10.58 11.54 10.85L11.52 10.91C11.52 10.94 11.47 10.95 11.45 10.93L11.39 10.87C11.11 10.61 10.98 10.11 10.98 9.75ZM23.8 12.07C23.82 11.97 23.89 11.88 24.04 11.69C24.2 11.49 24.34 11.34 24.36 11.35C24.42 11.39 24.67 12.11 24.77 12.5C24.92 13.11 24.97 13.65 24.94 14.29C24.89 15.47 24.5 16.55 23.69 17.77C23.28 18.38 22.73 19.03 21.61 20.22C20.46 21.44 20.33 21.59 19.96 22.04C18.86 23.4 18.3 24.73 18.3 25.96C18.3 26.83 18.57 27.71 19.06 28.5C19.15 28.63 19.22 28.75 19.22 28.76C19.22 28.77 18.14 28.78 16.83 28.78C15.52 28.78 14.44 28.77 14.44 28.76C14.44 28.75 14.6 28.42 14.78 28.04C15.13 27.31 15.28 26.95 15.82 25.43C16.98 22.13 17.89 20.73 19.96 18.99C20.94 18.18 21.94 17.39 22.79 16.44C22.94 16.28 23.07 16.11 23.2 15.94C23.5 15.51 23.77 14.98 23.93 14.5C24.04 14.16 24.06 14.04 24.06 13.51C24.06 13.16 24.04 12.86 23.91 12.52L23.91 12.52C23.82 12.29 23.78 12.17 23.8 12.07Z" fill="#FFFFFF" fill-opacity="1.000000" fill-rule="evenodd"/>
	<path id="Vector" d="M26.01 8.64C25.31 8.93 24.84 9.43 24.72 10.01C24.66 10.35 24.7 10.6 24.83 10.6C25.13 10.6 25.88 10.03 26.14 9.6C26.27 9.38 26.43 8.89 26.43 8.69C26.43 8.5 26.37 8.49 26.01 8.64Z" fill="#FFFFFF" fill-opacity="1.000000" fill-rule="evenodd"/>
	<path id="Vector" d="M20.3 6.15C19.72 6.83 19.73 8.22 20.31 8.9L20.46 9.07C20.46 9.07 20.47 9.09 20.47 9.11L20.44 9.46C20.4 9.93 20.27 10.52 20.11 10.99C19.83 11.84 19.1 13.11 18.31 14.13C17.88 14.69 16.86 15.93 16.65 16.15C16.64 16.17 16.6 16.2 16.59 16.23L16.15 16.8L15.88 17.22C15.73 17.46 15.58 17.7 15.54 17.77L15.51 17.83C15.49 17.86 15.46 17.87 15.44 17.84L15.18 17.53C14.85 17.12 14.4 16.71 13.8 16.26L13.42 15.97C13.42 15.97 13.4 15.96 13.4 15.95L13.19 14.92C12.79 13.04 12.74 12.83 12.61 12.6C12.45 12.29 11.4 11.24 10.77 10.75L10.29 10.38C10.29 10.38 10.28 10.37 10.28 10.36L10.23 10.05C10.16 9.62 10 9.33 9.7 9.03C9.46 8.79 8.73 8.31 8.68 8.36C8.67 8.37 8.63 8.51 8.61 8.66C8.47 9.44 8.92 10.29 9.68 10.67C9.86 10.75 10.04 10.83 10.09 10.83C10.14 10.83 10.33 10.95 10.51 11.09C11.02 11.5 12.1 12.58 12.2 12.77C12.25 12.86 12.34 13.18 12.4 13.48C12.46 13.78 12.58 14.34 12.67 14.73C12.76 15.12 12.83 15.45 12.82 15.46C12.78 15.49 11.75 14.7 11.42 14.38C10.97 13.96 10.59 13.39 10.43 12.88C10.31 12.49 10.16 12.42 9.86 12.16C9.65 11.98 9.47 11.84 9.44 11.84C9.37 11.84 9.32 12.24 9.33 12.8C9.33 13.65 9.56 14.32 10.16 15.27C10.22 15.36 10.19 15.36 9.83 15.2C9.28 14.97 8.49 14.33 8.45 14.09C8.41 13.89 8.25 13.6 8.08 13.44C7.91 13.28 7.5 13.09 7.19 13.03C6.82 12.96 6 12.97 6 13.05C6 13.2 6.26 13.6 6.5 13.83C6.88 14.18 7.43 14.41 7.89 14.41C8.05 14.41 8.11 14.45 8.38 14.7C8.9 15.19 9.24 15.42 9.78 15.65C10.69 16.05 10.87 16.17 11.23 16.58C11.4 16.79 11.54 16.96 11.53 16.97L12.03 17.51L12.33 17.85C13.91 19.66 14.92 21.21 15.34 22.49C15.38 22.62 15.43 22.72 15.45 22.72C15.47 22.72 15.55 22.56 15.64 22.37C15.98 21.58 16.62 20.53 17.03 20.08C17.2 19.88 17.25 19.79 17.35 19.41C17.65 18.29 18.11 17.3 18.95 15.94C19.27 15.43 19.3 15.4 20.68 14.12C22.54 12.41 22.71 12.25 22.87 12.02C22.95 11.91 23.12 11.71 23.25 11.57C23.84 10.95 24.13 10.24 24.13 9.43C24.13 8.98 24.05 8.61 23.91 8.44L23.86 8.38C23.84 8.36 23.81 8.36 23.79 8.37L23.61 8.58C22.88 9.41 22.58 10.27 22.7 11.16L22.76 11.55C22.76 11.57 22.75 11.59 22.75 11.59L22.59 11.76C22.49 11.86 22.02 12.3 21.54 12.73C21.06 13.17 20.52 13.67 20.33 13.85L20.19 13.99C20.15 14.03 20.1 13.99 20.12 13.94L20.18 13.82C20.96 12.27 21.24 10.83 21.03 9.49C20.95 8.97 20.95 8.97 21.06 8.72C21.21 8.34 21.23 7.86 21.11 7.39C21.01 7.01 20.71 6.35 20.53 6.12L20.46 6.04C20.45 6.01 20.41 6.01 20.4 6.04L20.3 6.15Z" fill="#FFFFFF" fill-opacity="1.000000" fill-rule="nonzero"/>
	<path id="Rectangle 240647399" d="M15.77 27.45L17.91 27.45L18.15 28.18L15.53 28.18L15.77 27.45Z" fill="#4600E9" fill-opacity="1.000000" fill-rule="nonzero"/>
	<path id="Rectangle 240647400" d="M16.14 26.42L17.71 26.42L17.87 26.89L15.94 26.89L16.14 26.42Z" fill="#4600E9" fill-opacity="1.000000" fill-rule="nonzero"/>
	<path id="Rectangle 240647401" d="M16.51 25.48L17.67 25.48L17.85 25.86L16.33 25.86L16.51 25.48Z" fill="#4600E9" fill-opacity="1.000000" fill-rule="nonzero"/>
	<path id="Rectangle 240647402" d="M16.84 24.6L17.8 24.6L17.95 24.92L16.69 24.92L16.84 24.6Z" fill="#4600E9" fill-opacity="1.000000" fill-rule="nonzero"/>
	<path id="Rectangle 240647403" d="M17.18 23.81L17.96 23.81L18.08 24.04L17.05 24.04L17.18 23.81Z" fill="#4600E9" fill-opacity="1.000000" fill-rule="nonzero"/>
	<circle id="Ellipse 3589" cx="20.274414" cy="28.311523" r="0.492968" fill="#FFFFFF" fill-opacity="1.000000"/>
</svg>
