<svg width="24.000000" height="24.000000" viewBox="0 0 24 24" fill="none" xmlns="http://www.w3.org/2000/svg" xmlns:xlink="http://www.w3.org/1999/xlink">
	<desc>
			Created with Pixso.
	</desc>
	<defs>
		<clipPath id="clip20_92022">
			<rect id="Outline / Users / User Heart" rx="0.000000" width="23.000000" height="23.000000" transform="translate(0.500000 0.500000)" fill="white" fill-opacity="0"/>
		</clipPath>
	</defs>
	<g clip-path="url(#clip20_92022)">
		<path id="Union" d="M5.25 6C5.25 3.37 7.37 1.25 10 1.25C12.62 1.25 14.75 3.37 14.75 6C14.75 8.62 12.62 10.75 10 10.75C7.37 10.75 5.25 8.62 5.25 6ZM10 2.75C8.2 2.75 6.75 4.2 6.75 6C6.75 7.79 8.2 9.25 10 9.25C11.79 9.25 13.25 7.79 13.25 6C13.25 4.2 11.79 2.75 10 2.75ZM19 7.67C18.24 7.18 17.41 7.12 16.68 7.44C15.83 7.82 15.25 8.69 15.25 9.69C15.25 10.64 15.66 11.36 16.16 11.9C16.54 12.32 17.02 12.68 17.4 12.96C17.48 13.02 17.56 13.08 17.63 13.13L17.63 13.13C17.78 13.25 17.97 13.39 18.17 13.51C18.38 13.62 18.66 13.75 19 13.75C19.33 13.75 19.61 13.62 19.82 13.51C20.02 13.39 20.21 13.25 20.36 13.13L20.36 13.13C20.43 13.08 20.51 13.02 20.59 12.96C20.97 12.68 21.45 12.32 21.83 11.9C22.33 11.36 22.75 10.64 22.75 9.69C22.75 8.69 22.16 7.82 21.31 7.44C20.58 7.12 19.75 7.18 19 7.67ZM17.29 8.82C16.99 8.95 16.75 9.28 16.75 9.69C16.75 10.16 16.93 10.53 17.26 10.89C17.54 11.19 17.88 11.44 18.25 11.72C18.34 11.79 18.44 11.86 18.54 11.94C18.7 12.06 18.81 12.14 18.91 12.2C18.95 12.22 18.98 12.23 19 12.24C19.01 12.23 19.04 12.22 19.08 12.2C19.18 12.14 19.29 12.06 19.45 11.94C19.55 11.86 19.65 11.79 19.74 11.72C20.11 11.44 20.45 11.19 20.73 10.89C21.06 10.53 21.25 10.16 21.25 9.69C21.25 9.28 21 8.95 20.7 8.82C20.43 8.69 20.01 8.68 19.53 9.17C19.39 9.31 19.19 9.39 19 9.39C18.8 9.39 18.6 9.31 18.46 9.17C17.98 8.68 17.56 8.69 17.29 8.82ZM3.97 13.66C5.55 12.77 7.68 12.25 10 12.25C12.31 12.25 14.44 12.77 16.02 13.66C17.58 14.53 18.75 15.86 18.75 17.5L18.75 17.6C18.75 18.76 18.75 20.22 17.47 21.26C16.84 21.77 15.96 22.14 14.77 22.38C13.58 22.62 12.02 22.75 10 22.75C7.97 22.75 6.41 22.62 5.22 22.38C4.03 22.14 3.15 21.77 2.52 21.26C1.24 20.22 1.24 18.76 1.25 17.6L1.25 17.5C1.25 15.86 2.41 14.53 3.97 13.66ZM4.71 14.97C3.37 15.72 2.75 16.64 2.75 17.5C2.75 18.8 2.79 19.54 3.47 20.1C3.84 20.4 4.46 20.69 5.52 20.91C6.58 21.12 8.02 21.25 10 21.25C11.97 21.25 13.41 21.12 14.47 20.91C15.53 20.69 16.15 20.4 16.52 20.1C17.2 19.54 17.25 18.8 17.25 17.5C17.25 16.64 16.62 15.72 15.28 14.97C13.97 14.23 12.1 13.75 10 13.75C7.89 13.75 6.02 14.23 4.71 14.97Z" fill="#7047EB" fill-opacity="1.000000" fill-rule="evenodd"/>
	</g>
</svg>
