<svg width="24.000000" height="24.000000" viewBox="0 0 24 24" fill="none" xmlns="http://www.w3.org/2000/svg" xmlns:xlink="http://www.w3.org/1999/xlink">
	<desc>
			Created with Pixso.
	</desc>
	<defs>
		<clipPath id="clip20_91979">
			<rect id="Outline / Users / User Rounded" rx="0.000000" width="23.000000" height="23.000000" transform="translate(0.500000 0.500000)" fill="white" fill-opacity="0"/>
		</clipPath>
	</defs>
	<g clip-path="url(#clip20_91979)">
		<path id="Vector" d="M7.25 6C7.25 3.37 9.37 1.25 12 1.25C14.62 1.25 16.75 3.37 16.75 6C16.75 8.62 14.62 10.75 12 10.75C9.37 10.75 7.25 8.62 7.25 6ZM12 2.75C10.2 2.75 8.75 4.2 8.75 6C8.75 7.79 10.2 9.25 12 9.25C13.79 9.25 15.25 7.79 15.25 6C15.25 4.2 13.79 2.75 12 2.75ZM6.67 13.51C8.07 12.72 9.96 12.25 12 12.25C14.03 12.25 15.92 12.72 17.32 13.51C18.69 14.3 19.75 15.51 19.75 17C19.75 18.48 18.69 19.69 17.32 20.48C15.92 21.27 14.03 21.75 12 21.75C9.96 21.75 8.07 21.27 6.67 20.48C5.3 19.69 4.25 18.48 4.25 17C4.25 15.51 5.3 14.3 6.67 13.51ZM7.42 14.82C6.26 15.48 5.75 16.28 5.75 17C5.75 17.71 6.26 18.51 7.42 19.17C8.55 19.82 10.17 20.25 12 20.25C13.82 20.25 15.44 19.82 16.57 19.17C17.73 18.51 18.25 17.71 18.25 17C18.25 16.28 17.73 15.48 16.57 14.82C15.44 14.17 13.82 13.75 12 13.75C10.17 13.75 8.55 14.17 7.42 14.82Z" fill="#6A0BFF" fill-opacity="1.000000" fill-rule="evenodd"/>
		<path id="Vector" d="M8.75 6C8.75 7.79 10.2 9.25 12 9.25C13.79 9.25 15.25 7.79 15.25 6C15.25 4.2 13.79 2.75 12 2.75C10.2 2.75 8.75 4.2 8.75 6ZM12 1.25C14.62 1.25 16.75 3.37 16.75 6C16.75 8.62 14.62 10.75 12 10.75C9.37 10.75 7.25 8.62 7.25 6C7.25 3.37 9.37 1.25 12 1.25ZM5.75 17C5.75 17.71 6.26 18.51 7.42 19.17C8.55 19.82 10.17 20.25 12 20.25C13.82 20.25 15.44 19.82 16.57 19.17C17.73 18.51 18.25 17.71 18.25 17C18.25 16.28 17.73 15.48 16.57 14.82C15.44 14.17 13.82 13.75 12 13.75C10.17 13.75 8.55 14.17 7.42 14.82C6.26 15.48 5.75 16.28 5.75 17ZM12 12.25C14.03 12.25 15.92 12.72 17.32 13.51C18.69 14.3 19.75 15.51 19.75 17C19.75 18.48 18.69 19.69 17.32 20.48C15.92 21.27 14.03 21.75 12 21.75C9.96 21.75 8.07 21.27 6.67 20.48C5.3 19.69 4.25 18.48 4.25 17C4.25 15.51 5.3 14.3 6.67 13.51C8.07 12.72 9.96 12.25 12 12.25Z" stroke="#6A0BFF" stroke-opacity="1.000000" stroke-width="0.000000"/>
	</g>
</svg>
