<svg width="24.000000" height="24.000000" viewBox="0 0 24 24" fill="none" xmlns="http://www.w3.org/2000/svg" xmlns:xlink="http://www.w3.org/1999/xlink">
	<desc>
			Created with Pixso.
	</desc>
	<defs/>
	<rect id=" Icons / Fosfor Icons / Broadcast" rx="0.000000" width="23.000000" height="23.000000" transform="translate(0.500000 0.500000)" fill="#FFFFFF" fill-opacity="0"/>
	<path id="Vector" d="M12 8.25C11.25 8.25 10.53 8.46 9.91 8.88C9.3 9.29 8.82 9.87 8.53 10.56C8.25 11.25 8.17 12 8.32 12.73C8.46 13.45 8.82 14.12 9.34 14.65C9.87 15.17 10.54 15.53 11.26 15.67C11.99 15.82 12.75 15.74 13.43 15.46C14.12 15.17 14.7 14.69 15.11 14.08C15.53 13.46 15.75 12.74 15.75 12C15.75 11 15.35 10.05 14.65 9.34C13.94 8.64 12.99 8.25 12 8.25ZM12 14.25C11.55 14.25 11.12 14.11 10.75 13.87C10.38 13.62 10.09 13.27 9.92 12.85C9.75 12.44 9.7 11.99 9.79 11.55C9.88 11.12 10.09 10.72 10.41 10.41C10.72 10.09 11.12 9.87 11.56 9.79C11.99 9.7 12.44 9.75 12.86 9.92C13.27 10.08 13.62 10.37 13.87 10.75C14.11 11.12 14.25 11.55 14.25 12C14.25 12.59 14.01 13.16 13.59 13.58C13.16 14.01 12.59 14.25 12 14.25ZM18.91 14.91C18.58 15.67 18.14 16.38 17.58 17C17.45 17.14 17.27 17.23 17.07 17.23C16.87 17.25 16.68 17.17 16.53 17.05C16.39 16.91 16.3 16.73 16.29 16.53C16.27 16.34 16.34 16.14 16.47 16C17.45 14.89 18 13.47 18 12C18 10.52 17.45 9.09 16.47 8C16.4 7.92 16.35 7.83 16.31 7.74C16.28 7.65 16.26 7.55 16.27 7.45C16.27 7.35 16.3 7.25 16.34 7.16C16.38 7.07 16.44 7 16.52 6.93C16.59 6.86 16.68 6.81 16.77 6.78C16.87 6.75 16.97 6.73 17.07 6.74C17.16 6.75 17.26 6.77 17.35 6.82C17.44 6.86 17.52 6.92 17.58 7C18.53 8.05 19.16 9.36 19.39 10.76C19.63 12.16 19.46 13.6 18.91 14.91ZM6.46 9.66C6.02 10.71 5.89 11.86 6.07 12.98C6.26 14.1 6.76 15.15 7.52 16C7.65 16.14 7.71 16.34 7.7 16.53C7.69 16.73 7.6 16.91 7.45 17.05C7.31 17.17 7.11 17.25 6.92 17.23C6.72 17.23 6.54 17.14 6.4 17C5.17 15.62 4.49 13.84 4.49 12C4.49 10.15 5.17 8.37 6.4 7C6.53 6.85 6.72 6.76 6.92 6.75C7.12 6.73 7.31 6.8 7.46 6.94C7.61 7.07 7.7 7.25 7.71 7.45C7.72 7.65 7.66 7.85 7.52 8C7.08 8.49 6.72 9.05 6.46 9.66ZM23.25 12C23.25 14.94 22.09 17.77 20.03 19.87C19.96 19.94 19.88 20 19.79 20.04C19.7 20.08 19.6 20.1 19.5 20.11C19.4 20.11 19.3 20.09 19.21 20.05C19.11 20.02 19.03 19.96 18.96 19.89C18.89 19.82 18.83 19.74 18.79 19.65C18.75 19.55 18.73 19.46 18.73 19.35C18.73 19.26 18.75 19.16 18.79 19.07C18.83 18.97 18.89 18.89 18.96 18.82C20.75 17 21.75 14.55 21.75 12C21.75 9.44 20.75 7 18.96 5.17C18.82 5.03 18.74 4.84 18.75 4.64C18.75 4.44 18.83 4.25 18.97 4.11C19.11 3.97 19.3 3.89 19.5 3.89C19.7 3.9 19.89 3.98 20.03 4.12C22.09 6.22 23.25 9.05 23.25 12ZM5.03 18.82C5.1 18.89 5.15 18.97 5.19 19.06C5.23 19.16 5.25 19.25 5.25 19.35C5.25 19.45 5.23 19.55 5.19 19.64C5.15 19.73 5.09 19.81 5.02 19.88C4.95 19.95 4.87 20 4.78 20.04C4.68 20.08 4.59 20.1 4.49 20.09C4.39 20.09 4.29 20.07 4.2 20.03C4.11 20 4.03 19.94 3.96 19.87C1.9 17.77 0.74 14.94 0.74 12C0.74 9.05 1.9 6.22 3.96 4.12C4.03 4.05 4.11 3.99 4.2 3.95C4.29 3.91 4.39 3.89 4.49 3.88C4.59 3.88 4.69 3.9 4.78 3.93C4.88 3.97 4.96 4.03 5.03 4.1C5.1 4.17 5.16 4.25 5.2 4.34C5.24 4.43 5.26 4.53 5.26 4.63C5.26 4.73 5.24 4.83 5.2 4.92C5.16 5.01 5.1 5.1 5.03 5.17C3.24 6.99 2.24 9.44 2.24 11.99C2.24 14.55 3.24 17 5.03 18.82L5.03 18.82Z" fill="#474747" fill-opacity="1.000000" fill-rule="nonzero"/>
</svg>
