<svg width="17.916016" height="17.917969" viewBox="0 0 17.916 17.918" fill="none" xmlns="http://www.w3.org/2000/svg" xmlns:xlink="http://www.w3.org/1999/xlink">
	<desc>
			Created with Pixso.
	</desc>
	<defs/>
	<path id="Vector" d="M4.3 0.15C5.47 0 6.98 0 8.91 0L9 0C10.92 0 12.43 0 13.61 0.15C14.81 0.32 15.76 0.65 16.51 1.4C17.25 2.14 17.59 3.09 17.75 4.3C17.91 5.48 17.91 6.98 17.91 8.91L17.91 9C17.91 10.92 17.91 12.43 17.75 13.61C17.59 14.81 17.25 15.76 16.51 16.51C15.76 17.25 14.81 17.59 13.61 17.75C12.43 17.91 10.92 17.91 9 17.91L8.91 17.91C6.98 17.91 5.47 17.91 4.3 17.75C3.09 17.59 2.14 17.25 1.4 16.51C0.65 15.76 0.32 14.81 0.15 13.61C0 12.43 0 10.92 0 9L0 8.91C0 6.98 0 5.48 0.15 4.3C0.32 3.09 0.65 2.14 1.4 1.4C2.14 0.65 3.09 0.32 4.3 0.15ZM4.46 1.39C3.4 1.53 2.76 1.81 2.28 2.28C1.81 2.76 1.54 3.4 1.39 4.46C1.25 5.55 1.25 6.97 1.25 8.95C1.25 10.94 1.25 12.36 1.39 13.44C1.54 14.51 1.81 15.15 2.28 15.62C2.76 16.1 3.4 16.37 4.46 16.51C5.55 16.66 6.97 16.66 8.95 16.66C10.93 16.66 12.36 16.66 13.44 16.51C14.51 16.37 15.15 16.1 15.62 15.62C16.1 15.15 16.37 14.51 16.51 13.44C16.66 12.36 16.66 10.94 16.66 8.95C16.66 6.97 16.66 5.55 16.51 4.46C16.37 3.4 16.1 2.76 15.62 2.28C15.15 1.81 14.51 1.53 13.44 1.39C12.36 1.25 10.93 1.25 8.95 1.25C6.97 1.25 5.55 1.25 4.46 1.39ZM4.79 5C5.13 5 5.41 5.28 5.41 5.62L5.41 12.29C5.41 12.63 5.13 12.91 4.79 12.91C4.44 12.91 4.16 12.63 4.16 12.29L4.16 5.62C4.16 5.28 4.44 5 4.79 5ZM13.75 8.95C13.75 9.3 13.47 9.58 13.12 9.58L8.8 9.58L10.23 11.01C10.47 11.26 10.47 11.65 10.23 11.89C9.99 12.14 9.59 12.14 9.34 11.89L6.84 9.39C6.73 9.28 6.66 9.12 6.66 8.95C6.66 8.79 6.73 8.63 6.84 8.51L9.34 6.01C9.59 5.77 9.99 5.77 10.23 6.01C10.47 6.26 10.47 6.65 10.23 6.89L8.8 8.33L13.12 8.33C13.47 8.33 13.75 8.61 13.75 8.95Z" fill="#5E5E5E" fill-opacity="1.000000" fill-rule="evenodd"/>
	<path id="Vector" d="M8.91 0L9 0C10.92 0 12.43 0 13.61 0.15C14.81 0.32 15.76 0.65 16.51 1.4C17.25 2.14 17.59 3.09 17.75 4.3C17.91 5.48 17.91 6.98 17.91 8.91L17.91 9C17.91 10.92 17.91 12.43 17.75 13.61C17.59 14.81 17.25 15.76 16.51 16.51C15.76 17.25 14.81 17.59 13.61 17.75C12.43 17.91 10.92 17.91 9 17.91L8.91 17.91C6.98 17.91 5.47 17.91 4.3 17.75C3.09 17.59 2.14 17.25 1.4 16.51C0.65 15.76 0.32 14.81 0.15 13.61C0 12.43 0 10.92 0 9L0 8.91C0 6.98 0 5.48 0.15 4.3C0.32 3.09 0.65 2.14 1.4 1.4C2.14 0.65 3.09 0.32 4.3 0.15C5.47 0 6.98 0 8.91 0ZM2.28 2.28C1.81 2.76 1.54 3.4 1.39 4.46C1.25 5.55 1.25 6.97 1.25 8.95C1.25 10.94 1.25 12.36 1.39 13.44C1.54 14.51 1.81 15.15 2.28 15.62C2.76 16.1 3.4 16.37 4.46 16.51C5.55 16.66 6.97 16.66 8.95 16.66C10.93 16.66 12.36 16.66 13.44 16.51C14.51 16.37 15.15 16.1 15.62 15.62C16.1 15.15 16.37 14.51 16.51 13.44C16.66 12.36 16.66 10.94 16.66 8.95C16.66 6.97 16.66 5.55 16.51 4.46C16.37 3.4 16.1 2.76 15.62 2.28C15.15 1.81 14.51 1.53 13.44 1.39C12.36 1.25 10.93 1.25 8.95 1.25C6.97 1.25 5.55 1.25 4.46 1.39C3.4 1.53 2.76 1.81 2.28 2.28ZM4.79 5C4.44 5 4.16 5.28 4.16 5.62L4.16 12.29C4.16 12.63 4.44 12.91 4.79 12.91C5.13 12.91 5.41 12.63 5.41 12.29L5.41 5.62C5.41 5.28 5.13 5 4.79 5ZM13.75 8.95C13.75 8.61 13.47 8.33 13.12 8.33L8.8 8.33L10.23 6.89C10.47 6.65 10.47 6.26 10.23 6.01C9.99 5.77 9.59 5.77 9.34 6.01L6.84 8.51C6.73 8.63 6.66 8.79 6.66 8.95C6.66 9.12 6.73 9.28 6.84 9.39L9.34 11.89C9.59 12.14 9.99 12.14 10.23 11.89C10.47 11.65 10.47 11.26 10.23 11.01L8.8 9.58L13.12 9.58C13.47 9.58 13.75 9.3 13.75 8.95Z" stroke="#5E5E5E" stroke-opacity="1.000000" stroke-width="0.000000"/>
</svg>
