<svg width="19.500000" height="19.498047" viewBox="0 0 19.5 19.498" fill="none" xmlns="http://www.w3.org/2000/svg" xmlns:xlink="http://www.w3.org/1999/xlink">
	<desc>
			Created with Pixso.
	</desc>
	<defs/>
	<path id="Vector" d="M13.5 8.24C13.5 8.44 13.42 8.63 13.28 8.77C13.13 8.91 12.94 8.99 12.75 8.99L6.75 8.99C6.55 8.99 6.36 8.91 6.21 8.77C6.07 8.63 6 8.44 6 8.24C6 8.04 6.07 7.85 6.21 7.71C6.36 7.57 6.55 7.49 6.75 7.49L12.75 7.49C12.94 7.49 13.13 7.57 13.28 7.71C13.42 7.85 13.5 8.04 13.5 8.24ZM12.75 10.49L6.75 10.49C6.55 10.49 6.36 10.57 6.21 10.71C6.07 10.85 6 11.04 6 11.24C6 11.44 6.07 11.63 6.21 11.77C6.36 11.91 6.55 11.99 6.75 11.99L12.75 11.99C12.94 11.99 13.13 11.91 13.28 11.77C13.42 11.63 13.5 11.44 13.5 11.24C13.5 11.04 13.42 10.85 13.28 10.71C13.13 10.57 12.94 10.49 12.75 10.49ZM19.5 9.74C19.5 11.42 19.06 13.08 18.23 14.54C17.4 16.01 16.21 17.24 14.77 18.1C13.32 18.97 11.68 19.45 10 19.49C8.31 19.53 6.65 19.14 5.16 18.35L1.97 19.41C1.71 19.5 1.42 19.51 1.15 19.45C0.88 19.39 0.63 19.25 0.44 19.05C0.24 18.85 0.1 18.61 0.04 18.33C-0.03 18.06 -0.02 17.78 0.07 17.52L1.14 14.32C0.44 13.02 0.05 11.57 0 10.09C-0.05 8.61 0.24 7.13 0.84 5.78C1.44 4.43 2.34 3.23 3.48 2.28C4.61 1.33 5.95 0.64 7.38 0.29C8.82 -0.07 10.32 -0.1 11.77 0.21C13.22 0.51 14.58 1.15 15.75 2.06C16.91 2.97 17.86 4.14 18.51 5.47C19.16 6.8 19.49 8.26 19.5 9.74ZM18 9.74C18 8.48 17.7 7.23 17.14 6.09C16.58 4.96 15.77 3.97 14.77 3.2C13.76 2.43 12.59 1.9 11.35 1.65C10.11 1.41 8.83 1.45 7.61 1.78C6.38 2.1 5.25 2.71 4.3 3.54C3.35 4.38 2.61 5.42 2.12 6.59C1.64 7.76 1.43 9.02 1.51 10.29C1.6 11.55 1.97 12.78 2.6 13.87C2.66 13.96 2.69 14.07 2.7 14.17C2.71 14.28 2.7 14.38 2.66 14.49L1.5 17.99L5 16.82C5.08 16.8 5.16 16.78 5.24 16.78C5.37 16.78 5.5 16.82 5.61 16.88C6.87 17.61 8.29 17.99 9.74 17.99C11.19 17.99 12.61 17.61 13.87 16.89C15.12 16.16 16.16 15.12 16.89 13.87C17.61 12.61 18 11.19 18 9.74Z" fill="#FFFFFF" fill-opacity="1.000000" fill-rule="nonzero"/>
	<path id="Vector" d="" fill="#FFFFFF" fill-opacity="1.000000" fill-rule="evenodd"/>
</svg>
