<svg width="21.500000" height="21.500000" viewBox="0 0 21.5 21.5" fill="none" xmlns="http://www.w3.org/2000/svg" xmlns:xlink="http://www.w3.org/1999/xlink">
	<desc>
			Created with Pixso.
	</desc>
	<defs/>
	<path id="Union" d="M4 4.75C4 2.12 6.12 0 8.75 0C11.37 0 13.5 2.12 13.5 4.75C13.5 7.37 11.37 9.5 8.75 9.5C6.12 9.5 4 7.37 4 4.75ZM8.75 1.5C6.95 1.5 5.5 2.95 5.5 4.75C5.5 6.54 6.95 8 8.75 8C10.54 8 12 6.54 12 4.75C12 2.95 10.54 1.5 8.75 1.5ZM17.75 6.42C16.99 5.93 16.16 5.87 15.44 6.19C14.58 6.57 14 7.44 14 8.45C14 9.39 14.41 10.11 14.91 10.65C15.29 11.07 15.77 11.43 16.15 11.71C16.23 11.77 16.31 11.83 16.38 11.88L16.38 11.88C16.53 12 16.72 12.14 16.92 12.26C17.13 12.37 17.41 12.5 17.75 12.5C18.08 12.5 18.36 12.37 18.57 12.26C18.77 12.14 18.96 12 19.11 11.88L19.11 11.88C19.18 11.83 19.26 11.77 19.34 11.71C19.72 11.43 20.2 11.07 20.58 10.65C21.08 10.11 21.5 9.39 21.5 8.45C21.5 7.44 20.91 6.57 20.05 6.19C19.33 5.87 18.5 5.93 17.75 6.42ZM16.04 7.56C15.74 7.7 15.5 8.03 15.5 8.45C15.5 8.91 15.68 9.28 16.01 9.63C16.29 9.94 16.63 10.19 17 10.47C17.09 10.54 17.19 10.61 17.29 10.69C17.45 10.81 17.56 10.89 17.66 10.95C17.7 10.97 17.73 10.99 17.75 10.99C17.76 10.99 17.79 10.97 17.83 10.95C17.93 10.89 18.04 10.81 18.2 10.69C18.3 10.61 18.4 10.54 18.49 10.47C18.86 10.19 19.2 9.94 19.48 9.63C19.81 9.28 20 8.91 20 8.45C20 8.03 19.76 7.7 19.45 7.56C19.18 7.45 18.76 7.43 18.28 7.92C18.14 8.06 17.95 8.14 17.75 8.14C17.55 8.14 17.35 8.06 17.21 7.92C16.73 7.43 16.31 7.45 16.04 7.56ZM2.72 12.41C4.3 11.52 6.43 11 8.75 11C11.06 11 13.19 11.52 14.77 12.41C16.33 13.29 17.5 14.61 17.5 16.25L17.5 16.35C17.5 17.51 17.5 18.97 16.22 20.01C15.59 20.52 14.71 20.89 13.52 21.13C12.33 21.37 10.77 21.5 8.75 21.5C6.72 21.5 5.16 21.37 3.97 21.13C2.78 20.89 1.9 20.52 1.27 20.01C-0.01 18.97 -0.01 17.51 0 16.35L0 16.25C0 14.61 1.16 13.29 2.72 12.41ZM3.46 13.72C2.12 14.47 1.5 15.39 1.5 16.25C1.5 17.55 1.54 18.29 2.22 18.85C2.59 19.15 3.21 19.44 4.27 19.66C5.33 19.87 6.77 20 8.75 20C10.72 20 12.16 19.87 13.22 19.66C14.28 19.44 14.9 19.15 15.27 18.85C15.96 18.29 16 17.55 16 16.25C16 15.39 15.37 14.47 14.03 13.72C12.72 12.98 10.85 12.5 8.75 12.5C6.64 12.5 4.77 12.98 3.46 13.72Z" fill="#5E5E5E" fill-opacity="1.000000" fill-rule="evenodd"/>
</svg>
