<svg width="24.000000" height="24.000000" viewBox="0 0 24 24" fill="none" xmlns="http://www.w3.org/2000/svg" xmlns:xlink="http://www.w3.org/1999/xlink">
	<desc>
			Created with Pixso.
	</desc>
	<defs/>
	<rect id=" Icons / Fosfor Icons / PencilSimple" rx="0.000000" width="23.000000" height="23.000000" transform="translate(0.500000 0.500000)" fill="#FFFFFF" fill-opacity="0"/>
	<path id="Vector" d="M21.31 6.87L17.12 2.69C16.98 2.55 16.81 2.44 16.63 2.36C16.45 2.28 16.25 2.25 16.06 2.25C15.86 2.25 15.66 2.28 15.48 2.36C15.3 2.44 15.13 2.55 15 2.69L3.43 14.25C3.29 14.39 3.18 14.55 3.11 14.73C3.03 14.91 3 15.11 3 15.31L3 19.5C3 19.89 3.15 20.28 3.43 20.56C3.72 20.84 4.1 21 4.5 21L8.68 21C8.88 21 9.08 20.96 9.26 20.88C9.44 20.81 9.61 20.69 9.75 20.56L21.31 9C21.44 8.86 21.56 8.69 21.63 8.51C21.71 8.33 21.75 8.13 21.75 7.94C21.75 7.74 21.71 7.54 21.63 7.36C21.56 7.18 21.44 7.01 21.31 6.87ZM8.68 19.5L4.5 19.5L4.5 15.31L12.75 7.06L16.93 11.25L8.68 19.5ZM18 10.19L13.81 6L16.06 3.75L20.25 7.94L18 10.19Z" fill="#6A0BFF" fill-opacity="1.000000" fill-rule="nonzero"/>
</svg>
